<svg width="218" height="42" viewBox="0 0 218 42" fill="none" xmlns="http://www.w3.org/2000/svg">
<path d="M9.25928 8.38496V33.6899C9.25928 34.265 8.62665 34.61 8.10905 34.3225L2.81799 31.0443C1.09266 29.9516 0 28.0538 0 26.0409V0.735984C0 0.160873 0.632622 -0.184198 1.15022 0.103358L6.44122 3.38149C8.22406 4.41669 9.25928 6.31456 9.25928 8.38496Z" fill="#F3CC50"/>
<path d="M22.8892 8.38496V41.2238C22.8892 41.7989 22.2565 42.144 21.7389 41.8564L16.4479 38.5783C14.7226 37.4856 13.6299 35.5877 13.6299 33.5748V0.735984C13.6299 0.160873 14.2625 -0.184198 14.7801 0.103358L20.0711 3.38149C21.8539 4.41669 22.8892 6.31456 22.8892 8.38496Z" fill="#F3CC50"/>
<path d="M72.7516 35.4728H68.2657C67.8631 35.4728 67.4605 35.1277 67.4605 34.6676V23.9706C67.4605 22.7053 67.173 21.7276 66.5404 21.0375C65.9078 20.3474 65.0451 20.0023 63.8374 20.0023C62.6297 20.0023 61.7094 20.4049 61.0768 21.1525C60.4442 21.9577 60.0992 22.9354 60.0992 24.0281V34.7251C60.0992 35.1277 59.7541 35.5303 59.294 35.5303H54.8081C54.4055 35.5303 54.0029 35.1852 54.0029 34.7251V15.5739C54.0029 15.1714 54.348 14.7688 54.8081 14.7688H59.2365C59.6391 14.7688 60.0416 15.1139 60.0416 15.5739V17.5293H60.0992C60.8468 16.2066 61.9395 15.3439 63.3198 14.8838C64.4125 14.5387 65.3326 14.3662 65.9653 14.3662C68.4382 14.3662 70.2786 15.1714 71.5438 16.7242C72.8091 18.3345 73.4417 20.2898 73.4417 22.5903V34.6676C73.4992 35.1277 73.1542 35.4728 72.7516 35.4728Z" fill="white"/>
<path d="M192.719 35.4728H188.233C187.831 35.4728 187.428 35.1277 187.428 34.6676V23.9706C187.428 22.7053 187.141 21.7276 186.508 21.0375C185.875 20.3474 185.013 20.0023 183.805 20.0023C182.597 20.0023 181.677 20.4049 181.045 21.1525C180.412 21.9577 180.067 22.9354 180.067 24.0281V34.7251C180.067 35.1277 179.722 35.5303 179.262 35.5303H174.776C174.373 35.5303 173.971 35.1852 173.971 34.7251V15.5739C173.971 15.1714 174.316 14.7688 174.776 14.7688H179.204C179.607 14.7688 180.009 15.1139 180.009 15.5739V17.5293H180.067C180.815 16.2066 181.907 15.3439 183.287 14.8838C184.38 14.5387 185.3 14.3662 185.933 14.3662C188.406 14.3662 190.246 15.1714 191.512 16.7242C192.777 18.3345 193.409 20.2898 193.409 22.5903V34.6676C193.467 35.1277 193.122 35.4728 192.719 35.4728Z" fill="white"/>
<path d="M88.3377 35.4725H83.2766C82.9316 35.4725 82.7016 35.2999 82.529 35.0124L74.765 15.8612C74.535 15.3436 74.9375 14.7684 75.5126 14.7684H80.2286C80.5737 14.7684 80.8612 14.9985 80.9762 15.286L85.8646 28.5711L90.8106 15.2285C90.9256 14.941 91.2132 14.7109 91.5583 14.7109H96.2741C96.8493 14.7109 97.1944 15.286 97.0218 15.8036L89.1428 34.9548C88.9128 35.2999 88.6252 35.4725 88.3377 35.4725Z" fill="white"/>
<path d="M128.997 35.9327C126.64 35.9327 124.799 35.4151 123.361 34.3224C122.671 33.8623 122.154 33.3447 121.694 32.712C121.061 32.0219 120.601 30.7567 120.371 29.8365C120.256 29.3189 120.601 28.8588 121.118 28.8588H125.144C125.432 28.8588 125.719 29.0313 125.834 29.3189C125.949 29.664 126.237 30.009 126.64 30.3541C127.272 30.9292 128.02 31.2167 128.997 31.2167C129.745 31.2167 130.32 31.0442 130.78 30.6992C131.183 30.3541 131.413 29.894 131.413 29.4339C131.413 28.5713 130.723 27.9386 129.4 27.6511L126.755 27.076C122.786 26.2133 120.773 24.2004 120.773 21.0373C120.773 19.1394 121.521 17.5291 123.016 16.2639C124.569 14.9411 126.409 14.251 128.652 14.251C131.7 14.251 133.943 15.1712 135.496 17.069C136.129 17.8167 136.589 18.7368 136.819 19.772C136.934 20.2896 136.589 20.7497 136.071 20.7497H132.103C131.816 20.7497 131.528 20.5772 131.413 20.3472C131.24 20.0596 131.068 19.8296 130.665 19.542C130.148 19.1394 129.458 18.9094 128.652 18.9094C127.962 18.9094 127.445 19.0819 126.985 19.427C126.582 19.772 126.352 20.1746 126.352 20.6922C126.352 21.4974 126.87 21.9575 127.962 22.1875L130.838 22.8201C132.851 23.2227 134.404 23.9704 135.496 25.0631C136.589 26.1558 137.107 27.536 137.107 29.0888C137.107 30.8717 136.416 32.482 135.094 33.8047C133.656 35.2425 131.585 35.9327 128.997 35.9327Z" fill="white"/>
<path d="M165.517 12.2957L168.45 14.2511C169.658 15.0562 170.406 16.4365 170.406 17.8743V34.725C170.406 35.1276 170.061 35.5302 169.6 35.5302H165.057C164.655 35.5302 164.252 35.1851 164.252 34.725V12.9283C164.309 12.2957 165 11.9506 165.517 12.2957Z" fill="white"/>
<path d="M145.618 20.0598H149.988C150.391 20.0598 150.794 19.7147 150.794 19.2547V15.5739C150.794 15.1714 150.449 14.7688 149.988 14.7688H145.618V12.6984C145.618 11.2031 144.927 9.82283 143.72 8.96017L141.362 7.23483C140.672 6.71723 139.636 7.23483 139.636 8.0975L139.521 26.3285C139.521 31.3895 143.605 35.4728 148.666 35.4728H149.873C150.276 35.4728 150.679 35.1277 150.679 34.6676V30.9294C150.679 30.5268 150.334 30.1243 149.873 30.1243C147.458 30.1243 145.503 28.1689 145.503 25.7534V20.0598H145.618Z" fill="white"/>
<path d="M115.424 17.1841C113.526 15.2863 110.996 14.3086 107.947 14.3086C105.935 14.3086 104.152 14.7687 102.484 15.7464C100.759 16.7241 99.4359 18.0468 98.4582 19.7146C97.4805 21.3825 96.9629 23.2228 96.9629 25.1782C96.9629 27.1911 97.4805 29.089 98.5157 30.8143C99.5509 32.4821 100.931 33.8049 102.657 34.6675C104.382 35.5877 106.28 36.0478 108.35 36.0478C110.42 36.0478 112.318 35.5302 114.044 34.4375C115.309 33.6323 115.884 32.9997 116.287 32.3671C116.517 32.022 116.402 31.5044 115.999 31.2744L112.721 29.319C112.433 29.1465 111.973 29.204 111.743 29.434C111.513 29.6641 111.168 29.9516 110.823 30.1242C109.96 30.6418 109.04 30.9293 108.178 30.9293C106.855 30.9293 105.762 30.5267 104.784 29.7791C103.807 28.9739 103.232 27.9962 103.059 26.846H110.881H115.942H116.057C117.264 26.846 118.185 25.8683 118.185 24.7181C118.3 21.6125 117.322 19.082 115.424 17.1841ZM103.289 22.8202C103.404 22.0151 103.864 21.2099 104.727 20.4048C105.532 19.5996 106.567 19.2546 107.833 19.2546C109.328 19.2546 110.42 19.6571 111.168 20.5198C111.801 21.2674 112.146 22.0151 112.261 22.8777H103.289V22.8202Z" fill="white"/>
<path d="M45.6066 2.69218L47.907 4.3025C49.4023 5.3377 50.265 7.00552 50.265 8.84587V34.7259C50.265 35.1285 49.92 35.531 49.4599 35.531H44.9165C44.5139 35.531 44.1113 35.186 44.1113 34.7259V3.43983C44.1688 2.7497 45.0315 2.28961 45.6066 2.69218Z" fill="white"/>
<path d="M155.625 3.3241L157.926 4.93441C159.421 5.96961 160.284 7.63743 160.284 9.47778V34.7252C160.284 35.1277 159.938 35.5303 159.478 35.5303H154.935C154.532 35.5303 154.13 35.1852 154.13 34.7252V4.07174C154.187 3.3241 154.993 2.92152 155.625 3.3241Z" fill="white"/>
<path d="M198.528 3.3241L200.828 4.93441C202.323 5.96961 203.186 7.63743 203.186 9.47778V34.7252C203.186 35.1277 202.841 35.5303 202.381 35.5303H197.837C197.435 35.5303 197.032 35.1852 197.032 34.7252V4.07174C197.147 3.3241 197.952 2.92152 198.528 3.3241Z" fill="white"/>
<path d="M211.239 23.8557L217.105 16.2643C217.508 15.7467 217.163 14.999 216.473 14.999H211.469C211.239 14.999 211.009 15.114 210.837 15.2866L205.661 22.0154C204.165 23.9132 204.165 26.5588 205.661 28.4566L210.894 35.1854C211.067 35.358 211.297 35.473 211.527 35.473H216.53C217.163 35.473 217.565 34.7253 217.163 34.2077L211.297 26.6163C210.549 25.8111 210.549 24.6609 211.239 23.8557Z" fill="white"/>
<path d="M168.795 4.30078H165.92C165.057 4.30078 164.31 4.99092 164.31 5.91109V8.78665C164.31 9.64932 165 10.397 165.92 10.397H168.795C169.658 10.397 170.406 9.70683 170.406 8.78665V5.91109C170.406 4.99092 169.716 4.30078 168.795 4.30078Z" fill="white"/>
</svg>
