<svg width="303" height="40" viewBox="0 0 303 40" fill="none" xmlns="http://www.w3.org/2000/svg">
<path d="M148.5 11.5833V35.791C148.5 36.351 147.866 36.6933 147.391 36.3822L142.225 33.2395C140.514 32.1816 139.5 30.3769 139.5 28.4167V4.20903C139.5 3.64896 140.134 3.30669 140.609 3.61784L145.775 6.79159C147.486 7.78728 148.5 9.62308 148.5 11.5833Z" fill="#F3CC50"/>
<path d="M163.5 8.03316V39.2954C163.5 39.852 162.866 40.1921 162.391 39.8829L157.225 36.7288C155.546 35.7084 154.5 33.884 154.5 31.9359V0.70463C154.5 0.148033 155.134 -0.19211 155.609 0.117111L160.775 3.27116C162.486 4.26067 163.5 6.08507 163.5 8.03316Z" fill="#F3CC50"/>
</svg>
